# xmcd CD database file
#
# Track frame offsets:
#	187
#	18372
#	39930
#	56715
#	76707
#	94085
#	109110
#	128640
#	146155
#	160347
#
# Disc length: 2406 seconds
#
# Revision: 0
# Processed by: cddbd v1.5.1PL0 Copyright (c) Steve Scherf et al.
# Submitted via: CDex 1.50
#
DISCID=7809640a
DTITLE=男闘呼組 - 男闘呼組
DYEAR=1988
DGENRE=J-POP
TTITLE0=OVER TURE  ルート・17
TTITLE1=別離のハイウェイ
TTITLE2=RUN RUNAWAY
TTITLE3=KIDS
TTITLE4=この夜にすべてを
TTITLE5=ROLLIN' IN THE DARK
TTITLE6=Carry On
TTITLE7=明日への暴走
TTITLE8=MEN'S BUGI
TTITLE9=不良
EXTD=YEAR: 1988
EXTT0=
EXTT1=
EXTT2=
EXTT3=
EXTT4=
EXTT5=
EXTT6=
EXTT7=
EXTT8=
EXTT9=
PLAYORDER=
